<svg xmlns="http://www.w3.org/2000/svg" viewBox="0 0 900 700" role="img" aria-labelledby="title desc">
  <title id="title">Calm eye clinic consultation room</title>
  <desc id="desc">A minimal illustration of an eye clinic room with examination chair, eye chart, and soft blue interior.</desc>
  <rect width="900" height="700" fill="#EDF8FF"/>
  <rect x="72" y="86" width="756" height="450" rx="34" fill="#fff" stroke="#D1E9FF" stroke-width="4"/>
  <rect x="115" y="130" width="210" height="260" rx="18" fill="#F8FCFF" stroke="#D1E9FF" stroke-width="3"/>
  <text x="160" y="190" fill="#006BA9" font-family="Arial, sans-serif" font-size="64" font-weight="700">E</text>
  <text x="160" y="250" fill="#69A2C4" font-family="Arial, sans-serif" font-size="42" font-weight="700">F P</text>
  <text x="160" y="306" fill="#92C4E1" font-family="Arial, sans-serif" font-size="30" font-weight="700">T O Z</text>
  <text x="160" y="354" fill="#69A2C4" font-family="Arial, sans-serif" font-size="22" font-weight="700">L P E D</text>
  <path d="M478 206c66-70 176-70 242 0-66 76-176 76-242 0Z" fill="#D1E9FF"/>
  <circle cx="599" cy="206" r="54" fill="#92C4E1"/>
  <circle cx="599" cy="206" r="27" fill="#006BA9"/>
  <circle cx="612" cy="190" r="10" fill="#fff"/>
  <rect x="465" y="432" width="225" height="34" rx="17" fill="#69A2C4"/>
  <rect x="530" y="463" width="92" height="83" rx="18" fill="#006BA9"/>
  <rect x="428" y="545" width="300" height="48" rx="24" fill="#D1E9FF"/>
  <rect x="198" y="455" width="130" height="88" rx="22" fill="#92C4E1"/>
  <rect x="168" y="530" width="190" height="42" rx="21" fill="#006BA9"/>
  <circle cx="764" cy="148" r="30" fill="#D1E9FF"/>
  <circle cx="748" cy="148" r="10" fill="#006BA9"/>
  <circle cx="780" cy="148" r="10" fill="#006BA9"/>
</svg>
